<svg width="102" height="79" viewBox="0 0 102 79" fill="none" xmlns="http://www.w3.org/2000/svg">
<rect x="22.453" y="5.65887" width="14.8021" height="54.7456" rx="7.40104" fill="#D30074"/>
<rect x="43.5989" y="0.291656" width="14.8021" height="60.1128" rx="7.40104" fill="#D30074"/>
<rect x="64.7446" y="5.65887" width="14.8021" height="54.7456" rx="7.40104" fill="#D30074"/>
<rect x="86.9478" y="22.834" width="14.8021" height="37.5705" rx="7.40104" fill="#D30074"/>
<ellipse cx="8.17969" cy="52.3536" rx="7.92969" ry="8.05082" fill="#D30074"/>
<path d="M1.45837 75.9505C1.51698 77.4918 2.89413 78.8333 5.07707 78.8333C7.01094 78.8333 8.3881 77.7487 8.3881 76.0361C8.3881 74.5233 7.47976 73.6385 5.8975 73.0819L4.5643 72.6109C3.55341 72.2541 3.06994 71.826 3.06994 70.9697C3.06994 70.1276 3.84642 69.5996 4.84266 69.5996C5.69239 69.5996 6.54212 70.042 6.80583 71.0981H8.15369C8.02183 69.7708 6.98164 68.3579 4.87196 68.3579C3.05529 68.3579 1.70743 69.357 1.70743 71.0125C1.72208 72.4396 2.49857 73.3102 4.11013 73.8668L5.54589 74.3806C6.51282 74.7231 7.02559 75.2797 7.02559 76.0789C7.02559 77.0208 6.14656 77.5917 5.06242 77.5917C4.08083 77.5917 2.93808 77.0779 2.82088 75.9505H1.45837Z" fill="#D30074"/>
<path d="M10.2274 78.6621H11.4874V75.1227C11.4874 73.4529 12.425 72.511 13.6117 72.511C14.6373 72.511 15.3405 73.2531 15.3405 74.4519V78.6621H16.5858V74.2664C16.5858 72.4967 15.4577 71.3835 13.8168 71.3835C12.8645 71.3835 11.9855 71.7831 11.4874 72.6252V67.9583H10.2274V78.6621Z" fill="#D30074"/>
<path d="M18.2833 75.0942C18.2833 77.135 19.8216 78.8048 21.8727 78.8048C22.9715 78.8048 23.9677 78.2482 24.4512 77.5632V78.6621H25.7111V71.5263H24.4512V72.6252C23.9677 71.9401 22.9715 71.3835 21.8727 71.3835C19.8216 71.3835 18.2833 73.0533 18.2833 75.0942ZM24.5537 75.0942C24.5537 76.5356 23.5429 77.6773 22.0631 77.6773C20.5834 77.6773 19.5579 76.5356 19.5579 75.0942C19.5579 73.6527 20.5834 72.511 22.0631 72.511C23.5429 72.511 24.5537 73.6527 24.5537 75.0942Z" fill="#D30074"/>
<path d="M27.5114 75.0942C27.5114 77.135 29.0498 78.8048 31.1008 78.8048C32.1996 78.8048 33.1959 78.2482 33.6793 77.5632V78.6621H34.9393V67.9583H33.6793V72.6252C33.1959 71.9401 32.1996 71.3835 31.1008 71.3835C29.0498 71.3835 27.5114 73.0533 27.5114 75.0942ZM33.7819 75.0942C33.7819 76.5356 32.771 77.6773 31.2913 77.6773C29.8116 77.6773 28.786 76.5356 28.786 75.0942C28.786 73.6527 29.8116 72.511 31.2913 72.511C32.771 72.511 33.7819 73.6527 33.7819 75.0942Z" fill="#D30074"/>
<path d="M44.3872 75.0942C44.3872 73.0391 42.761 71.3835 40.5634 71.3835C38.3512 71.3835 36.7249 73.0391 36.7249 75.0942C36.7249 77.1493 38.3512 78.8048 40.5634 78.8048C42.761 78.8048 44.3872 77.1493 44.3872 75.0942ZM38.0142 75.0942C38.0142 73.667 39.0397 72.5253 40.5634 72.5253C42.0871 72.5253 43.0979 73.667 43.0979 75.0942C43.0979 76.5213 42.0871 77.6631 40.5634 77.6631C39.0397 77.6631 38.0142 76.5213 38.0142 75.0942Z" fill="#D30074"/>
<path d="M52.379 78.6621H53.4924L55.983 71.5263H54.6498L52.8771 76.7354L51.0458 71.5263H50.0788L48.2475 76.7354L46.4748 71.5263H45.1562L47.6468 78.6621H48.7603L50.577 73.5243L52.379 78.6621Z" fill="#D30074"/>
<path d="M60.8079 78.6621H62.1704V74.0523H63.1812L67.1809 78.6621H68.895L64.8954 74.0381C66.4923 73.8097 67.4592 72.8107 67.4592 71.3265C67.4592 69.6567 66.2725 68.5292 64.3533 68.5292H60.8079V78.6621ZM62.1704 72.8678V69.7566H64.1921C65.3788 69.7566 66.0967 70.2989 66.0967 71.3265C66.0967 72.3397 65.3788 72.8678 64.1921 72.8678H62.1704Z" fill="#D30074"/>
<path d="M76.7787 75.0942C76.7787 73.0391 75.1525 71.3835 72.9549 71.3835C70.7427 71.3835 69.1164 73.0391 69.1164 75.0942C69.1164 77.1493 70.7427 78.8048 72.9549 78.8048C75.1525 78.8048 76.7787 77.1493 76.7787 75.0942ZM70.4057 75.0942C70.4057 73.667 71.4312 72.5253 72.9549 72.5253C74.4786 72.5253 75.4894 73.667 75.4894 75.0942C75.4894 76.5213 74.4786 77.6631 72.9549 77.6631C71.4312 77.6631 70.4057 76.5213 70.4057 75.0942Z" fill="#D30074"/>
<path d="M79.8472 77.5632C80.3307 78.2482 81.3269 78.8048 82.4257 78.8048C84.4621 78.8048 86.0151 77.135 86.0151 75.0942C86.0151 73.0533 84.4621 71.3835 82.4257 71.3835C81.3269 71.3835 80.3307 71.9401 79.8472 72.6252V67.9583H78.5872V78.6621H79.8472V77.5632ZM84.7258 75.0942C84.7258 76.5356 83.7149 77.6773 82.2352 77.6773C80.7555 77.6773 79.7446 76.5356 79.7446 75.0942C79.7446 73.6527 80.7555 72.511 82.2352 72.511C83.7149 72.511 84.7258 73.6527 84.7258 75.0942Z" fill="#D30074"/>
<path d="M94.8916 75.0942C94.8916 73.0391 93.2654 71.3835 91.0678 71.3835C88.8556 71.3835 87.2294 73.0391 87.2294 75.0942C87.2294 77.1493 88.8556 78.8048 91.0678 78.8048C93.2654 78.8048 94.8916 77.1493 94.8916 75.0942ZM88.5186 75.0942C88.5186 73.667 89.5442 72.5253 91.0678 72.5253C92.5915 72.5253 93.6024 73.667 93.6024 75.0942C93.6024 76.5213 92.5915 77.6631 91.0678 77.6631C89.5442 77.6631 88.5186 76.5213 88.5186 75.0942Z" fill="#D30074"/>
<path d="M100.542 78.5622V77.4633C100.307 77.5489 99.9557 77.606 99.648 77.606C98.8569 77.606 98.432 77.3063 98.432 76.3929V72.6537H100.542V71.5263H98.432V69.5425H97.1721V71.5263H95.6191V72.6537H97.1721V76.5499C97.1721 78.0341 98.139 78.7334 99.4136 78.7334C99.8678 78.7334 100.234 78.6621 100.542 78.5622Z" fill="#D30074"/>
</svg>
